<svg xmlns="http://www.w3.org/2000/svg" xmlns:xlink="http://www.w3.org/1999/xlink" version="1.1" preserveAspectRatio="none" x="0px" y="0px" viewBox="0 0 100 125"><defs><g id="a"><path fill="#d3d3d3" stroke="none" d=" M 94.05 42.9 Q 91.144140625 39.998046875 87 40 L 60 40 60 13 Q 60.001953125 8.855859375 57.05 5.9 54.144140625 2.998046875 50 3 45.855859375 2.998046875 42.9 5.9 39.998046875 8.855859375 40 13 L 40 40 13 40 Q 8.855859375 39.998046875 5.9 42.9 2.998046875 45.855859375 3 50 2.998046875 54.144140625 5.9 57.05 8.855859375 60.001953125 13 60 L 40 60 40 87 Q 39.998046875 91.144140625 42.9 94.05 45.855859375 97.001953125 50 97 54.144140625 97.001953125 57.05 94.05 60.001953125 91.144140625 60 87 L 60 60 87 60 Q 91.144140625 60.001953125 94.05 57.05 97.001953125 54.144140625 97 50 97.001953125 45.855859375 94.05 42.9 Z"/></g></defs><g transform="matrix( 1, 0, 0, 1, 0,0) "><use xlink:href="#a"/></g></svg>